# xmcd
#
# Track frame offsets:
#	150
#	16716
#	32118
#	50138
#	63358
#	79713
#	94940
#	111290
#	128063
#	144696
#	160113
#
# Disc length: 2364 seconds
#
# Revision: 1
# Processed by: cddbd v1.5.2PL0 Copyright (c) Steve Scherf et al.
# Submitted via: audiograbber 1.83.01
#
DISCID=8f093a0b
DTITLE=Home Free - Country Evolution
DYEAR=2015
DGENRE=Country
TTITLE0=Summer In The Country
TTITLE1=Good Ol' Country Harmony
TTITLE2=9 to 5
TTITLE3=Elvira (feat. The Oak Ridge Boys)
TTITLE4=Don't It Feel Good
TTITLE5=Honey, I'm Good
TTITLE6=Friends In Low Places
TTITLE7=Fishin' In The Dark/Down In The Boondocks
TTITLE8=The Devil Went Down To Georgia (feat. Charlie Daniels and Taylor Davix)
TTITLE9=House Party
TTITLE10=California Country
EXTD=
EXTT0=
EXTT1=
EXTT2=
EXTT3=
EXTT4=
EXTT5=
EXTT6=
EXTT7=
EXTT8=
EXTT9=
EXTT10=
PLAYORDER=
